<?xml version="1.0" encoding="utf-8" standalone="no"?>
<!DOCTYPE svg PUBLIC "-//W3C//DTD SVG 1.1//EN"
  "http://www.w3.org/Graphics/SVG/1.1/DTD/svg11.dtd">
<!-- Created with matplotlib (http://matplotlib.sourceforge.net/) -->
<svg height="351pt" version="1.1" viewBox="0 0 820 351" width="820pt" xmlns="http://www.w3.org/2000/svg" xmlns:xlink="http://www.w3.org/1999/xlink">
 <defs>
  <style type="text/css">
*{stroke-linecap:square;stroke-linejoin:round;}
  </style>
 </defs>
 <g id="figure_1">
  <g id="patch_1">
   <path d="
M0 351
L820.8 351
L820.8 0
L0 0
z
" style="fill:#ffffff;"/>
  </g>
  <g id="axes_1">
   <g id="patch_2">
    <path d="
M73.872 315.9
L787.968 315.9
L787.968 35.1
L73.872 35.1
z
" style="fill:#eeeeee;"/>
   </g>
   <g id="matplotlib.axis_1">
    <g id="xtick_1">
     <g id="line2d_1">
      <path clip-path="url(#pfb8182a99f)" d="
M93.9874 315.9
L93.9874 35.1" style="fill:none;stroke:#000000;stroke-dasharray:1.000000,3.000000;stroke-dashoffset:0.0;stroke-linecap:butt;stroke-width:0.5;"/>
     </g>
     <g id="line2d_2">
      <defs>
       <path d="
M0 0
L0 0" id="m451ee03cf5"/>
      </defs>
      <g>
       <use style="fill:#555555;stroke:#555555;stroke-linecap:butt;stroke-width:0.5;" x="93.9873802817" xlink:href="#m451ee03cf5" y="315.9"/>
      </g>
     </g>
     <g id="line2d_3">
      <defs>
       <path d="
M0 0
L0 0" id="m451ee03cf5"/>
      </defs>
      <g>
       <use style="fill:#555555;stroke:#555555;stroke-linecap:butt;stroke-width:0.5;" x="93.9873802817" xlink:href="#m451ee03cf5" y="35.1"/>
      </g>
     </g>
     <g id="text_1">
      <!-- 0 -->
      <defs>
       <path d="
M29.8906 70.2188
Q40.8281 70.2188 46.7031 60.8125
Q52.5938 51.4219 52.5938 34.4219
Q52.5938 17.9688 46.875 8.32812
Q41.1562 -1.3125 29.8906 -1.3125
Q19 -1.3125 13.0781 8.0625
Q7.17188 17.4375 7.17188 34.4219
Q7.17188 50.9219 12.9062 60.5625
Q18.6562 70.2188 29.8906 70.2188
M29.8906 5.71875
Q37.1094 5.71875 40.5938 12.5781
Q44.0938 19.4375 44.0938 34.4219
Q44.0938 49.4688 40.5938 56.2812
Q37.1094 63.0938 29.8906 63.0938
Q22.75 63.0938 19.2344 56.1094
Q15.7188 49.125 15.7188 34.4219
Q15.7188 19.5312 19.2031 12.625
Q22.7031 5.71875 29.8906 5.71875
M29.6875 41.75
Q32.7656 41.75 34.8906 39.625
Q37.0156 37.5 37.0156 34.4219
Q37.0156 31.25 34.8594 28.9688
Q32.7188 26.7031 29.6875 26.7031
Q26.7031 26.7031 24.5781 28.9688
Q22.4688 31.25 22.4688 34.4219
Q22.4688 37.5469 24.5312 39.6406
Q26.6094 41.75 29.6875 41.75" id="AndaleMono-30"/>
      </defs>
      <g style="fill:#555555;" transform="translate(91.7162865317 328.921875)scale(0.1 -0.1)">
       <use xlink:href="#AndaleMono-30"/>
      </g>
     </g>
    </g>
    <g id="xtick_2">
     <g id="line2d_4">
      <path clip-path="url(#pfb8182a99f)" d="
M194.564 315.9
L194.564 35.1" style="fill:none;stroke:#000000;stroke-dasharray:1.000000,3.000000;stroke-dashoffset:0.0;stroke-linecap:butt;stroke-width:0.5;"/>
     </g>
     <g id="line2d_5">
      <defs>
       <path d="
M0 0
L0 0" id="m451ee03cf5"/>
      </defs>
      <g>
       <use style="fill:#555555;stroke:#555555;stroke-linecap:butt;stroke-width:0.5;" x="194.56428169" xlink:href="#m451ee03cf5" y="315.9"/>
      </g>
     </g>
     <g id="line2d_6">
      <defs>
       <path d="
M0 0
L0 0" id="m451ee03cf5"/>
      </defs>
      <g>
       <use style="fill:#555555;stroke:#555555;stroke-linecap:butt;stroke-width:0.5;" x="194.56428169" xlink:href="#m451ee03cf5" y="35.1"/>
      </g>
     </g>
     <g id="text_2">
      <!-- 10 -->
      <defs>
       <path d="
M49.7031 0
L13.4844 0
L13.4844 6.98438
L28.0781 6.98438
L28.0781 60.5
L14.3125 53.6094
L14.3125 61.625
L29.2031 69.2812
L36.0781 69.2812
L36.0781 6.98438
L49.7031 6.98438
z
" id="AndaleMono-31"/>
      </defs>
      <g style="fill:#555555;" transform="translate(189.60803169 328.921875)scale(0.1 -0.1)">
       <use xlink:href="#AndaleMono-31"/>
       <use x="60.009765625" xlink:href="#AndaleMono-30"/>
      </g>
     </g>
    </g>
    <g id="xtick_3">
     <g id="line2d_7">
      <path clip-path="url(#pfb8182a99f)" d="
M295.141 315.9
L295.141 35.1" style="fill:none;stroke:#000000;stroke-dasharray:1.000000,3.000000;stroke-dashoffset:0.0;stroke-linecap:butt;stroke-width:0.5;"/>
     </g>
     <g id="line2d_8">
      <defs>
       <path d="
M0 0
L0 0" id="m451ee03cf5"/>
      </defs>
      <g>
       <use style="fill:#555555;stroke:#555555;stroke-linecap:butt;stroke-width:0.5;" x="295.141183099" xlink:href="#m451ee03cf5" y="315.9"/>
      </g>
     </g>
     <g id="line2d_9">
      <defs>
       <path d="
M0 0
L0 0" id="m451ee03cf5"/>
      </defs>
      <g>
       <use style="fill:#555555;stroke:#555555;stroke-linecap:butt;stroke-width:0.5;" x="295.141183099" xlink:href="#m451ee03cf5" y="35.1"/>
      </g>
     </g>
     <g id="text_3">
      <!-- 20 -->
      <defs>
       <path d="
M47.9062 0
L10.0156 0
L10.0156 5.8125
Q24.4219 21.875 28.7188 27.3438
Q33.0156 32.8125 35.6875 38.8125
Q38.375 44.8281 38.375 50.7812
Q38.375 56.5469 34.875 59.8594
Q31.3906 63.1875 25.0938 63.1875
Q20.2656 63.1875 12.1094 60.2031
L10.9844 67.0938
Q18.3594 70.2188 26.4219 70.2188
Q35.6406 70.2188 41.2812 65.0156
Q46.9219 59.8125 46.9219 51.125
Q46.9219 44.9219 44.0156 38.8125
Q41.1094 32.7188 36.5625 27.0938
Q32.0312 21.4844 18.8906 6.98438
L47.9062 6.98438
z
" id="AndaleMono-32"/>
      </defs>
      <g style="fill:#555555;" transform="translate(290.011495599 328.921875)scale(0.1 -0.1)">
       <use xlink:href="#AndaleMono-32"/>
       <use x="60.009765625" xlink:href="#AndaleMono-30"/>
      </g>
     </g>
    </g>
    <g id="xtick_4">
     <g id="line2d_10">
      <path clip-path="url(#pfb8182a99f)" d="
M395.718 315.9
L395.718 35.1" style="fill:none;stroke:#000000;stroke-dasharray:1.000000,3.000000;stroke-dashoffset:0.0;stroke-linecap:butt;stroke-width:0.5;"/>
     </g>
     <g id="line2d_11">
      <defs>
       <path d="
M0 0
L0 0" id="m451ee03cf5"/>
      </defs>
      <g>
       <use style="fill:#555555;stroke:#555555;stroke-linecap:butt;stroke-width:0.5;" x="395.718084507" xlink:href="#m451ee03cf5" y="315.9"/>
      </g>
     </g>
     <g id="line2d_12">
      <defs>
       <path d="
M0 0
L0 0" id="m451ee03cf5"/>
      </defs>
      <g>
       <use style="fill:#555555;stroke:#555555;stroke-linecap:butt;stroke-width:0.5;" x="395.718084507" xlink:href="#m451ee03cf5" y="35.1"/>
      </g>
     </g>
     <g id="text_4">
      <!-- 30 -->
      <defs>
       <path d="
M34.2812 37.0156
Q40.5781 35.25 44.375 30.5781
Q48.1875 25.9219 48.1875 20.125
Q48.1875 11.0312 41.1094 4.85938
Q34.0312 -1.3125 24.4219 -1.3125
Q16.2188 -1.3125 9.71875 2.29688
L11.2812 8.89062
Q18.0625 5.71875 24.7031 5.71875
Q30.9531 5.71875 35.375 9.59375
Q39.7969 13.4844 39.7969 19.5781
Q39.7969 25.5938 35.0625 29.3438
Q30.3281 33.1094 22.5156 33.1094
L20.4062 33.1094
L20.4062 39.7031
L21 39.7031
Q28.5156 39.7031 33.3906 43.2344
Q38.2812 46.7812 38.2812 52.7812
Q38.2812 57.6719 34.7656 60.4219
Q31.25 63.1875 25.0938 63.1875
Q19.7812 63.1875 13.1875 60.2969
L12.1094 67.1875
Q18.75 70.2188 25.4844 70.2188
Q34.7188 70.2188 40.7031 65.3594
Q46.6875 60.5 46.6875 52.875
Q46.6875 47.6094 43.0469 43.0469
Q39.4062 38.4844 34.2812 37.3125
z
" id="AndaleMono-33"/>
      </defs>
      <g style="fill:#555555;" transform="translate(390.573553257 328.921875)scale(0.1 -0.1)">
       <use xlink:href="#AndaleMono-33"/>
       <use x="60.009765625" xlink:href="#AndaleMono-30"/>
      </g>
     </g>
    </g>
    <g id="xtick_5">
     <g id="line2d_13">
      <path clip-path="url(#pfb8182a99f)" d="
M496.295 315.9
L496.295 35.1" style="fill:none;stroke:#000000;stroke-dasharray:1.000000,3.000000;stroke-dashoffset:0.0;stroke-linecap:butt;stroke-width:0.5;"/>
     </g>
     <g id="line2d_14">
      <defs>
       <path d="
M0 0
L0 0" id="m451ee03cf5"/>
      </defs>
      <g>
       <use style="fill:#555555;stroke:#555555;stroke-linecap:butt;stroke-width:0.5;" x="496.294985915" xlink:href="#m451ee03cf5" y="315.9"/>
      </g>
     </g>
     <g id="line2d_15">
      <defs>
       <path d="
M0 0
L0 0" id="m451ee03cf5"/>
      </defs>
      <g>
       <use style="fill:#555555;stroke:#555555;stroke-linecap:butt;stroke-width:0.5;" x="496.294985915" xlink:href="#m451ee03cf5" y="35.1"/>
      </g>
     </g>
     <g id="text_5">
      <!-- 40 -->
      <defs>
       <path d="
M52.3906 15.9219
L43.8906 15.9219
L43.8906 0
L35.8906 0
L35.8906 15.9219
L5.90625 15.9219
L5.90625 22.0156
L33.1094 68.8906
L43.8906 68.8906
L43.8906 22.9062
L52.3906 22.9062
z

M35.8906 22.9062
L35.8906 60.9844
L14.0156 22.9062
z
" id="AndaleMono-34"/>
      </defs>
      <g style="fill:#555555;" transform="translate(490.959829665 328.921875)scale(0.1 -0.1)">
       <use xlink:href="#AndaleMono-34"/>
       <use x="60.009765625" xlink:href="#AndaleMono-30"/>
      </g>
     </g>
    </g>
    <g id="xtick_6">
     <g id="line2d_16">
      <path clip-path="url(#pfb8182a99f)" d="
M596.872 315.9
L596.872 35.1" style="fill:none;stroke:#000000;stroke-dasharray:1.000000,3.000000;stroke-dashoffset:0.0;stroke-linecap:butt;stroke-width:0.5;"/>
     </g>
     <g id="line2d_17">
      <defs>
       <path d="
M0 0
L0 0" id="m451ee03cf5"/>
      </defs>
      <g>
       <use style="fill:#555555;stroke:#555555;stroke-linecap:butt;stroke-width:0.5;" x="596.871887324" xlink:href="#m451ee03cf5" y="315.9"/>
      </g>
     </g>
     <g id="line2d_18">
      <defs>
       <path d="
M0 0
L0 0" id="m451ee03cf5"/>
      </defs>
      <g>
       <use style="fill:#555555;stroke:#555555;stroke-linecap:butt;stroke-width:0.5;" x="596.871887324" xlink:href="#m451ee03cf5" y="35.1"/>
      </g>
     </g>
     <g id="text_6">
      <!-- 50 -->
      <defs>
       <path d="
M21.1875 41.1094
Q24.5156 42 27.6875 42
Q37.4531 42 43.1094 36.0156
Q48.7812 30.0312 48.7812 21.0938
Q48.7812 11.7188 42.1875 5.20312
Q35.5938 -1.3125 26.125 -1.3125
Q17.0938 -1.3125 10.9844 1.70312
L12.5938 8.5
Q19.2344 5.71875 26.3125 5.71875
Q32.625 5.71875 36.5 9.76562
Q40.375 13.8125 40.375 21.0938
Q40.375 27.9844 36.7188 31.6875
Q33.0625 35.4062 27.2969 35.4062
Q23.0938 35.4062 19 33.7969
L14.2031 35.9844
L14.2031 68.8906
L45.7031 68.8906
L45.7031 61.9219
L21.1875 61.9219
z
" id="AndaleMono-35"/>
      </defs>
      <g style="fill:#555555;" transform="translate(591.790637324 328.921875)scale(0.1 -0.1)">
       <use xlink:href="#AndaleMono-35"/>
       <use x="60.009765625" xlink:href="#AndaleMono-30"/>
      </g>
     </g>
    </g>
    <g id="xtick_7">
     <g id="line2d_19">
      <path clip-path="url(#pfb8182a99f)" d="
M697.449 315.9
L697.449 35.1" style="fill:none;stroke:#000000;stroke-dasharray:1.000000,3.000000;stroke-dashoffset:0.0;stroke-linecap:butt;stroke-width:0.5;"/>
     </g>
     <g id="line2d_20">
      <defs>
       <path d="
M0 0
L0 0" id="m451ee03cf5"/>
      </defs>
      <g>
       <use style="fill:#555555;stroke:#555555;stroke-linecap:butt;stroke-width:0.5;" x="697.448788732" xlink:href="#m451ee03cf5" y="315.9"/>
      </g>
     </g>
     <g id="line2d_21">
      <defs>
       <path d="
M0 0
L0 0" id="m451ee03cf5"/>
      </defs>
      <g>
       <use style="fill:#555555;stroke:#555555;stroke-linecap:butt;stroke-width:0.5;" x="697.448788732" xlink:href="#m451ee03cf5" y="35.1"/>
      </g>
     </g>
     <g id="text_7">
      <!-- 60 -->
      <defs>
       <path d="
M17.6719 35.8906
Q24.125 41.1094 31.6875 41.1094
Q40.4375 41.1094 46.2656 35.5156
Q52.0938 29.9375 52.0938 21.0938
Q52.0938 11.375 46.9219 5.03125
Q41.75 -1.3125 33.1094 -1.3125
Q22.0781 -1.3125 15.625 8.8125
Q9.1875 18.9531 9.1875 33.5938
Q9.1875 49.2188 15.8906 59.7188
Q22.6094 70.2188 34.2812 70.2188
Q42.3281 70.2188 48.1875 67.8281
L46.9219 60.6875
Q40.1406 63.1875 34.5156 63.1875
Q26.5625 63.1875 22.1094 55.5625
Q17.6719 47.9531 17.6719 35.8906
M17.9219 29
Q17.9219 20.1719 22.0625 12.9375
Q26.2188 5.71875 32.5156 5.71875
Q37.8438 5.71875 40.7188 9.625
Q43.6094 13.5312 43.6094 20.4062
Q43.6094 26.7656 40.4219 30.4219
Q37.25 34.0781 31.5 34.0781
Q24.0312 34.0781 17.9219 29" id="AndaleMono-36"/>
      </defs>
      <g style="fill:#555555;" transform="translate(692.277694982 328.921875)scale(0.1 -0.1)">
       <use xlink:href="#AndaleMono-36"/>
       <use x="60.009765625" xlink:href="#AndaleMono-30"/>
      </g>
     </g>
    </g>
    <g id="xtick_8">
     <g id="line2d_22">
      <path clip-path="url(#pfb8182a99f)" d="
M93.9874 315.9
L93.9874 35.1" style="fill:none;stroke:#000000;stroke-dasharray:1.000000,3.000000;stroke-dashoffset:0.0;stroke-linecap:butt;stroke-width:0.5;"/>
     </g>
     <g id="line2d_23">
      <defs>
       <path d="
M0 0
L0 0" id="m451ee03cf5"/>
      </defs>
      <g>
       <use style="fill:#555555;stroke:#555555;stroke-linecap:butt;stroke-width:0.5;" x="93.9873802817" xlink:href="#m451ee03cf5" y="315.9"/>
      </g>
     </g>
     <g id="line2d_24">
      <defs>
       <path d="
M0 0
L0 0" id="m451ee03cf5"/>
      </defs>
      <g>
       <use style="fill:#555555;stroke:#555555;stroke-linecap:butt;stroke-width:0.5;" x="93.9873802817" xlink:href="#m451ee03cf5" y="35.1"/>
      </g>
     </g>
    </g>
    <g id="xtick_9">
     <g id="line2d_25">
      <path clip-path="url(#pfb8182a99f)" d="
M119.132 315.9
L119.132 35.1" style="fill:none;stroke:#000000;stroke-dasharray:1.000000,3.000000;stroke-dashoffset:0.0;stroke-linecap:butt;stroke-width:0.5;"/>
     </g>
     <g id="line2d_26">
      <defs>
       <path d="
M0 0
L0 0" id="m451ee03cf5"/>
      </defs>
      <g>
       <use style="fill:#555555;stroke:#555555;stroke-linecap:butt;stroke-width:0.5;" x="119.131605634" xlink:href="#m451ee03cf5" y="315.9"/>
      </g>
     </g>
     <g id="line2d_27">
      <defs>
       <path d="
M0 0
L0 0" id="m451ee03cf5"/>
      </defs>
      <g>
       <use style="fill:#555555;stroke:#555555;stroke-linecap:butt;stroke-width:0.5;" x="119.131605634" xlink:href="#m451ee03cf5" y="35.1"/>
      </g>
     </g>
    </g>
    <g id="xtick_10">
     <g id="line2d_28">
      <path clip-path="url(#pfb8182a99f)" d="
M144.276 315.9
L144.276 35.1" style="fill:none;stroke:#000000;stroke-dasharray:1.000000,3.000000;stroke-dashoffset:0.0;stroke-linecap:butt;stroke-width:0.5;"/>
     </g>
     <g id="line2d_29">
      <defs>
       <path d="
M0 0
L0 0" id="m451ee03cf5"/>
      </defs>
      <g>
       <use style="fill:#555555;stroke:#555555;stroke-linecap:butt;stroke-width:0.5;" x="144.275830986" xlink:href="#m451ee03cf5" y="315.9"/>
      </g>
     </g>
     <g id="line2d_30">
      <defs>
       <path d="
M0 0
L0 0" id="m451ee03cf5"/>
      </defs>
      <g>
       <use style="fill:#555555;stroke:#555555;stroke-linecap:butt;stroke-width:0.5;" x="144.275830986" xlink:href="#m451ee03cf5" y="35.1"/>
      </g>
     </g>
    </g>
    <g id="xtick_11">
     <g id="line2d_31">
      <path clip-path="url(#pfb8182a99f)" d="
M169.42 315.9
L169.42 35.1" style="fill:none;stroke:#000000;stroke-dasharray:1.000000,3.000000;stroke-dashoffset:0.0;stroke-linecap:butt;stroke-width:0.5;"/>
     </g>
     <g id="line2d_32">
      <defs>
       <path d="
M0 0
L0 0" id="m451ee03cf5"/>
      </defs>
      <g>
       <use style="fill:#555555;stroke:#555555;stroke-linecap:butt;stroke-width:0.5;" x="169.420056338" xlink:href="#m451ee03cf5" y="315.9"/>
      </g>
     </g>
     <g id="line2d_33">
      <defs>
       <path d="
M0 0
L0 0" id="m451ee03cf5"/>
      </defs>
      <g>
       <use style="fill:#555555;stroke:#555555;stroke-linecap:butt;stroke-width:0.5;" x="169.420056338" xlink:href="#m451ee03cf5" y="35.1"/>
      </g>
     </g>
    </g>
    <g id="xtick_12">
     <g id="line2d_34">
      <path clip-path="url(#pfb8182a99f)" d="
M194.564 315.9
L194.564 35.1" style="fill:none;stroke:#000000;stroke-dasharray:1.000000,3.000000;stroke-dashoffset:0.0;stroke-linecap:butt;stroke-width:0.5;"/>
     </g>
     <g id="line2d_35">
      <defs>
       <path d="
M0 0
L0 0" id="m451ee03cf5"/>
      </defs>
      <g>
       <use style="fill:#555555;stroke:#555555;stroke-linecap:butt;stroke-width:0.5;" x="194.56428169" xlink:href="#m451ee03cf5" y="315.9"/>
      </g>
     </g>
     <g id="line2d_36">
      <defs>
       <path d="
M0 0
L0 0" id="m451ee03cf5"/>
      </defs>
      <g>
       <use style="fill:#555555;stroke:#555555;stroke-linecap:butt;stroke-width:0.5;" x="194.56428169" xlink:href="#m451ee03cf5" y="35.1"/>
      </g>
     </g>
    </g>
    <g id="xtick_13">
     <g id="line2d_37">
      <path clip-path="url(#pfb8182a99f)" d="
M219.709 315.9
L219.709 35.1" style="fill:none;stroke:#000000;stroke-dasharray:1.000000,3.000000;stroke-dashoffset:0.0;stroke-linecap:butt;stroke-width:0.5;"/>
     </g>
     <g id="line2d_38">
      <defs>
       <path d="
M0 0
L0 0" id="m451ee03cf5"/>
      </defs>
      <g>
       <use style="fill:#555555;stroke:#555555;stroke-linecap:butt;stroke-width:0.5;" x="219.708507042" xlink:href="#m451ee03cf5" y="315.9"/>
      </g>
     </g>
     <g id="line2d_39">
      <defs>
       <path d="
M0 0
L0 0" id="m451ee03cf5"/>
      </defs>
      <g>
       <use style="fill:#555555;stroke:#555555;stroke-linecap:butt;stroke-width:0.5;" x="219.708507042" xlink:href="#m451ee03cf5" y="35.1"/>
      </g>
     </g>
    </g>
    <g id="xtick_14">
     <g id="line2d_40">
      <path clip-path="url(#pfb8182a99f)" d="
M244.853 315.9
L244.853 35.1" style="fill:none;stroke:#000000;stroke-dasharray:1.000000,3.000000;stroke-dashoffset:0.0;stroke-linecap:butt;stroke-width:0.5;"/>
     </g>
     <g id="line2d_41">
      <defs>
       <path d="
M0 0
L0 0" id="m451ee03cf5"/>
      </defs>
      <g>
       <use style="fill:#555555;stroke:#555555;stroke-linecap:butt;stroke-width:0.5;" x="244.852732394" xlink:href="#m451ee03cf5" y="315.9"/>
      </g>
     </g>
     <g id="line2d_42">
      <defs>
       <path d="
M0 0
L0 0" id="m451ee03cf5"/>
      </defs>
      <g>
       <use style="fill:#555555;stroke:#555555;stroke-linecap:butt;stroke-width:0.5;" x="244.852732394" xlink:href="#m451ee03cf5" y="35.1"/>
      </g>
     </g>
    </g>
    <g id="xtick_15">
     <g id="line2d_43">
      <path clip-path="url(#pfb8182a99f)" d="
M269.997 315.9
L269.997 35.1" style="fill:none;stroke:#000000;stroke-dasharray:1.000000,3.000000;stroke-dashoffset:0.0;stroke-linecap:butt;stroke-width:0.5;"/>
     </g>
     <g id="line2d_44">
      <defs>
       <path d="
M0 0
L0 0" id="m451ee03cf5"/>
      </defs>
      <g>
       <use style="fill:#555555;stroke:#555555;stroke-linecap:butt;stroke-width:0.5;" x="269.996957746" xlink:href="#m451ee03cf5" y="315.9"/>
      </g>
     </g>
     <g id="line2d_45">
      <defs>
       <path d="
M0 0
L0 0" id="m451ee03cf5"/>
      </defs>
      <g>
       <use style="fill:#555555;stroke:#555555;stroke-linecap:butt;stroke-width:0.5;" x="269.996957746" xlink:href="#m451ee03cf5" y="35.1"/>
      </g>
     </g>
    </g>
    <g id="xtick_16">
     <g id="line2d_46">
      <path clip-path="url(#pfb8182a99f)" d="
M295.141 315.9
L295.141 35.1" style="fill:none;stroke:#000000;stroke-dasharray:1.000000,3.000000;stroke-dashoffset:0.0;stroke-linecap:butt;stroke-width:0.5;"/>
     </g>
     <g id="line2d_47">
      <defs>
       <path d="
M0 0
L0 0" id="m451ee03cf5"/>
      </defs>
      <g>
       <use style="fill:#555555;stroke:#555555;stroke-linecap:butt;stroke-width:0.5;" x="295.141183099" xlink:href="#m451ee03cf5" y="315.9"/>
      </g>
     </g>
     <g id="line2d_48">
      <defs>
       <path d="
M0 0
L0 0" id="m451ee03cf5"/>
      </defs>
      <g>
       <use style="fill:#555555;stroke:#555555;stroke-linecap:butt;stroke-width:0.5;" x="295.141183099" xlink:href="#m451ee03cf5" y="35.1"/>
      </g>
     </g>
    </g>
    <g id="xtick_17">
     <g id="line2d_49">
      <path clip-path="url(#pfb8182a99f)" d="
M320.285 315.9
L320.285 35.1" style="fill:none;stroke:#000000;stroke-dasharray:1.000000,3.000000;stroke-dashoffset:0.0;stroke-linecap:butt;stroke-width:0.5;"/>
     </g>
     <g id="line2d_50">
      <defs>
       <path d="
M0 0
L0 0" id="m451ee03cf5"/>
      </defs>
      <g>
       <use style="fill:#555555;stroke:#555555;stroke-linecap:butt;stroke-width:0.5;" x="320.285408451" xlink:href="#m451ee03cf5" y="315.9"/>
      </g>
     </g>
     <g id="line2d_51">
      <defs>
       <path d="
M0 0
L0 0" id="m451ee03cf5"/>
      </defs>
      <g>
       <use style="fill:#555555;stroke:#555555;stroke-linecap:butt;stroke-width:0.5;" x="320.285408451" xlink:href="#m451ee03cf5" y="35.1"/>
      </g>
     </g>
    </g>
    <g id="xtick_18">
     <g id="line2d_52">
      <path clip-path="url(#pfb8182a99f)" d="
M345.43 315.9
L345.43 35.1" style="fill:none;stroke:#000000;stroke-dasharray:1.000000,3.000000;stroke-dashoffset:0.0;stroke-linecap:butt;stroke-width:0.5;"/>
     </g>
     <g id="line2d_53">
      <defs>
       <path d="
M0 0
L0 0" id="m451ee03cf5"/>
      </defs>
      <g>
       <use style="fill:#555555;stroke:#555555;stroke-linecap:butt;stroke-width:0.5;" x="345.429633803" xlink:href="#m451ee03cf5" y="315.9"/>
      </g>
     </g>
     <g id="line2d_54">
      <defs>
       <path d="
M0 0
L0 0" id="m451ee03cf5"/>
      </defs>
      <g>
       <use style="fill:#555555;stroke:#555555;stroke-linecap:butt;stroke-width:0.5;" x="345.429633803" xlink:href="#m451ee03cf5" y="35.1"/>
      </g>
     </g>
    </g>
    <g id="xtick_19">
     <g id="line2d_55">
      <path clip-path="url(#pfb8182a99f)" d="
M370.574 315.9
L370.574 35.1" style="fill:none;stroke:#000000;stroke-dasharray:1.000000,3.000000;stroke-dashoffset:0.0;stroke-linecap:butt;stroke-width:0.5;"/>
     </g>
     <g id="line2d_56">
      <defs>
       <path d="
M0 0
L0 0" id="m451ee03cf5"/>
      </defs>
      <g>
       <use style="fill:#555555;stroke:#555555;stroke-linecap:butt;stroke-width:0.5;" x="370.573859155" xlink:href="#m451ee03cf5" y="315.9"/>
      </g>
     </g>
     <g id="line2d_57">
      <defs>
       <path d="
M0 0
L0 0" id="m451ee03cf5"/>
      </defs>
      <g>
       <use style="fill:#555555;stroke:#555555;stroke-linecap:butt;stroke-width:0.5;" x="370.573859155" xlink:href="#m451ee03cf5" y="35.1"/>
      </g>
     </g>
    </g>
    <g id="xtick_20">
     <g id="line2d_58">
      <path clip-path="url(#pfb8182a99f)" d="
M395.718 315.9
L395.718 35.1" style="fill:none;stroke:#000000;stroke-dasharray:1.000000,3.000000;stroke-dashoffset:0.0;stroke-linecap:butt;stroke-width:0.5;"/>
     </g>
     <g id="line2d_59">
      <defs>
       <path d="
M0 0
L0 0" id="m451ee03cf5"/>
      </defs>
      <g>
       <use style="fill:#555555;stroke:#555555;stroke-linecap:butt;stroke-width:0.5;" x="395.718084507" xlink:href="#m451ee03cf5" y="315.9"/>
      </g>
     </g>
     <g id="line2d_60">
      <defs>
       <path d="
M0 0
L0 0" id="m451ee03cf5"/>
      </defs>
      <g>
       <use style="fill:#555555;stroke:#555555;stroke-linecap:butt;stroke-width:0.5;" x="395.718084507" xlink:href="#m451ee03cf5" y="35.1"/>
      </g>
     </g>
    </g>
    <g id="xtick_21">
     <g id="line2d_61">
      <path clip-path="url(#pfb8182a99f)" d="
M420.862 315.9
L420.862 35.1" style="fill:none;stroke:#000000;stroke-dasharray:1.000000,3.000000;stroke-dashoffset:0.0;stroke-linecap:butt;stroke-width:0.5;"/>
     </g>
     <g id="line2d_62">
      <defs>
       <path d="
M0 0
L0 0" id="m451ee03cf5"/>
      </defs>
      <g>
       <use style="fill:#555555;stroke:#555555;stroke-linecap:butt;stroke-width:0.5;" x="420.862309859" xlink:href="#m451ee03cf5" y="315.9"/>
      </g>
     </g>
     <g id="line2d_63">
      <defs>
       <path d="
M0 0
L0 0" id="m451ee03cf5"/>
      </defs>
      <g>
       <use style="fill:#555555;stroke:#555555;stroke-linecap:butt;stroke-width:0.5;" x="420.862309859" xlink:href="#m451ee03cf5" y="35.1"/>
      </g>
     </g>
    </g>
    <g id="xtick_22">
     <g id="line2d_64">
      <path clip-path="url(#pfb8182a99f)" d="
M446.007 315.9
L446.007 35.1" style="fill:none;stroke:#000000;stroke-dasharray:1.000000,3.000000;stroke-dashoffset:0.0;stroke-linecap:butt;stroke-width:0.5;"/>
     </g>
     <g id="line2d_65">
      <defs>
       <path d="
M0 0
L0 0" id="m451ee03cf5"/>
      </defs>
      <g>
       <use style="fill:#555555;stroke:#555555;stroke-linecap:butt;stroke-width:0.5;" x="446.006535211" xlink:href="#m451ee03cf5" y="315.9"/>
      </g>
     </g>
     <g id="line2d_66">
      <defs>
       <path d="
M0 0
L0 0" id="m451ee03cf5"/>
      </defs>
      <g>
       <use style="fill:#555555;stroke:#555555;stroke-linecap:butt;stroke-width:0.5;" x="446.006535211" xlink:href="#m451ee03cf5" y="35.1"/>
      </g>
     </g>
    </g>
    <g id="xtick_23">
     <g id="line2d_67">
      <path clip-path="url(#pfb8182a99f)" d="
M471.151 315.9
L471.151 35.1" style="fill:none;stroke:#000000;stroke-dasharray:1.000000,3.000000;stroke-dashoffset:0.0;stroke-linecap:butt;stroke-width:0.5;"/>
     </g>
     <g id="line2d_68">
      <defs>
       <path d="
M0 0
L0 0" id="m451ee03cf5"/>
      </defs>
      <g>
       <use style="fill:#555555;stroke:#555555;stroke-linecap:butt;stroke-width:0.5;" x="471.150760563" xlink:href="#m451ee03cf5" y="315.9"/>
      </g>
     </g>
     <g id="line2d_69">
      <defs>
       <path d="
M0 0
L0 0" id="m451ee03cf5"/>
      </defs>
      <g>
       <use style="fill:#555555;stroke:#555555;stroke-linecap:butt;stroke-width:0.5;" x="471.150760563" xlink:href="#m451ee03cf5" y="35.1"/>
      </g>
     </g>
    </g>
    <g id="xtick_24">
     <g id="line2d_70">
      <path clip-path="url(#pfb8182a99f)" d="
M496.295 315.9
L496.295 35.1" style="fill:none;stroke:#000000;stroke-dasharray:1.000000,3.000000;stroke-dashoffset:0.0;stroke-linecap:butt;stroke-width:0.5;"/>
     </g>
     <g id="line2d_71">
      <defs>
       <path d="
M0 0
L0 0" id="m451ee03cf5"/>
      </defs>
      <g>
       <use style="fill:#555555;stroke:#555555;stroke-linecap:butt;stroke-width:0.5;" x="496.294985915" xlink:href="#m451ee03cf5" y="315.9"/>
      </g>
     </g>
     <g id="line2d_72">
      <defs>
       <path d="
M0 0
L0 0" id="m451ee03cf5"/>
      </defs>
      <g>
       <use style="fill:#555555;stroke:#555555;stroke-linecap:butt;stroke-width:0.5;" x="496.294985915" xlink:href="#m451ee03cf5" y="35.1"/>
      </g>
     </g>
    </g>
    <g id="xtick_25">
     <g id="line2d_73">
      <path clip-path="url(#pfb8182a99f)" d="
M521.439 315.9
L521.439 35.1" style="fill:none;stroke:#000000;stroke-dasharray:1.000000,3.000000;stroke-dashoffset:0.0;stroke-linecap:butt;stroke-width:0.5;"/>
     </g>
     <g id="line2d_74">
      <defs>
       <path d="
M0 0
L0 0" id="m451ee03cf5"/>
      </defs>
      <g>
       <use style="fill:#555555;stroke:#555555;stroke-linecap:butt;stroke-width:0.5;" x="521.439211268" xlink:href="#m451ee03cf5" y="315.9"/>
      </g>
     </g>
     <g id="line2d_75">
      <defs>
       <path d="
M0 0
L0 0" id="m451ee03cf5"/>
      </defs>
      <g>
       <use style="fill:#555555;stroke:#555555;stroke-linecap:butt;stroke-width:0.5;" x="521.439211268" xlink:href="#m451ee03cf5" y="35.1"/>
      </g>
     </g>
    </g>
    <g id="xtick_26">
     <g id="line2d_76">
      <path clip-path="url(#pfb8182a99f)" d="
M546.583 315.9
L546.583 35.1" style="fill:none;stroke:#000000;stroke-dasharray:1.000000,3.000000;stroke-dashoffset:0.0;stroke-linecap:butt;stroke-width:0.5;"/>
     </g>
     <g id="line2d_77">
      <defs>
       <path d="
M0 0
L0 0" id="m451ee03cf5"/>
      </defs>
      <g>
       <use style="fill:#555555;stroke:#555555;stroke-linecap:butt;stroke-width:0.5;" x="546.58343662" xlink:href="#m451ee03cf5" y="315.9"/>
      </g>
     </g>
     <g id="line2d_78">
      <defs>
       <path d="
M0 0
L0 0" id="m451ee03cf5"/>
      </defs>
      <g>
       <use style="fill:#555555;stroke:#555555;stroke-linecap:butt;stroke-width:0.5;" x="546.58343662" xlink:href="#m451ee03cf5" y="35.1"/>
      </g>
     </g>
    </g>
    <g id="xtick_27">
     <g id="line2d_79">
      <path clip-path="url(#pfb8182a99f)" d="
M571.728 315.9
L571.728 35.1" style="fill:none;stroke:#000000;stroke-dasharray:1.000000,3.000000;stroke-dashoffset:0.0;stroke-linecap:butt;stroke-width:0.5;"/>
     </g>
     <g id="line2d_80">
      <defs>
       <path d="
M0 0
L0 0" id="m451ee03cf5"/>
      </defs>
      <g>
       <use style="fill:#555555;stroke:#555555;stroke-linecap:butt;stroke-width:0.5;" x="571.727661972" xlink:href="#m451ee03cf5" y="315.9"/>
      </g>
     </g>
     <g id="line2d_81">
      <defs>
       <path d="
M0 0
L0 0" id="m451ee03cf5"/>
      </defs>
      <g>
       <use style="fill:#555555;stroke:#555555;stroke-linecap:butt;stroke-width:0.5;" x="571.727661972" xlink:href="#m451ee03cf5" y="35.1"/>
      </g>
     </g>
    </g>
    <g id="xtick_28">
     <g id="line2d_82">
      <path clip-path="url(#pfb8182a99f)" d="
M596.872 315.9
L596.872 35.1" style="fill:none;stroke:#000000;stroke-dasharray:1.000000,3.000000;stroke-dashoffset:0.0;stroke-linecap:butt;stroke-width:0.5;"/>
     </g>
     <g id="line2d_83">
      <defs>
       <path d="
M0 0
L0 0" id="m451ee03cf5"/>
      </defs>
      <g>
       <use style="fill:#555555;stroke:#555555;stroke-linecap:butt;stroke-width:0.5;" x="596.871887324" xlink:href="#m451ee03cf5" y="315.9"/>
      </g>
     </g>
     <g id="line2d_84">
      <defs>
       <path d="
M0 0
L0 0" id="m451ee03cf5"/>
      </defs>
      <g>
       <use style="fill:#555555;stroke:#555555;stroke-linecap:butt;stroke-width:0.5;" x="596.871887324" xlink:href="#m451ee03cf5" y="35.1"/>
      </g>
     </g>
    </g>
    <g id="xtick_29">
     <g id="line2d_85">
      <path clip-path="url(#pfb8182a99f)" d="
M622.016 315.9
L622.016 35.1" style="fill:none;stroke:#000000;stroke-dasharray:1.000000,3.000000;stroke-dashoffset:0.0;stroke-linecap:butt;stroke-width:0.5;"/>
     </g>
     <g id="line2d_86">
      <defs>
       <path d="
M0 0
L0 0" id="m451ee03cf5"/>
      </defs>
      <g>
       <use style="fill:#555555;stroke:#555555;stroke-linecap:butt;stroke-width:0.5;" x="622.016112676" xlink:href="#m451ee03cf5" y="315.9"/>
      </g>
     </g>
     <g id="line2d_87">
      <defs>
       <path d="
M0 0
L0 0" id="m451ee03cf5"/>
      </defs>
      <g>
       <use style="fill:#555555;stroke:#555555;stroke-linecap:butt;stroke-width:0.5;" x="622.016112676" xlink:href="#m451ee03cf5" y="35.1"/>
      </g>
     </g>
    </g>
    <g id="xtick_30">
     <g id="line2d_88">
      <path clip-path="url(#pfb8182a99f)" d="
M647.16 315.9
L647.16 35.1" style="fill:none;stroke:#000000;stroke-dasharray:1.000000,3.000000;stroke-dashoffset:0.0;stroke-linecap:butt;stroke-width:0.5;"/>
     </g>
     <g id="line2d_89">
      <defs>
       <path d="
M0 0
L0 0" id="m451ee03cf5"/>
      </defs>
      <g>
       <use style="fill:#555555;stroke:#555555;stroke-linecap:butt;stroke-width:0.5;" x="647.160338028" xlink:href="#m451ee03cf5" y="315.9"/>
      </g>
     </g>
     <g id="line2d_90">
      <defs>
       <path d="
M0 0
L0 0" id="m451ee03cf5"/>
      </defs>
      <g>
       <use style="fill:#555555;stroke:#555555;stroke-linecap:butt;stroke-width:0.5;" x="647.160338028" xlink:href="#m451ee03cf5" y="35.1"/>
      </g>
     </g>
    </g>
    <g id="xtick_31">
     <g id="line2d_91">
      <path clip-path="url(#pfb8182a99f)" d="
M672.305 315.9
L672.305 35.1" style="fill:none;stroke:#000000;stroke-dasharray:1.000000,3.000000;stroke-dashoffset:0.0;stroke-linecap:butt;stroke-width:0.5;"/>
     </g>
     <g id="line2d_92">
      <defs>
       <path d="
M0 0
L0 0" id="m451ee03cf5"/>
      </defs>
      <g>
       <use style="fill:#555555;stroke:#555555;stroke-linecap:butt;stroke-width:0.5;" x="672.30456338" xlink:href="#m451ee03cf5" y="315.9"/>
      </g>
     </g>
     <g id="line2d_93">
      <defs>
       <path d="
M0 0
L0 0" id="m451ee03cf5"/>
      </defs>
      <g>
       <use style="fill:#555555;stroke:#555555;stroke-linecap:butt;stroke-width:0.5;" x="672.30456338" xlink:href="#m451ee03cf5" y="35.1"/>
      </g>
     </g>
    </g>
    <g id="xtick_32">
     <g id="line2d_94">
      <path clip-path="url(#pfb8182a99f)" d="
M697.449 315.9
L697.449 35.1" style="fill:none;stroke:#000000;stroke-dasharray:1.000000,3.000000;stroke-dashoffset:0.0;stroke-linecap:butt;stroke-width:0.5;"/>
     </g>
     <g id="line2d_95">
      <defs>
       <path d="
M0 0
L0 0" id="m451ee03cf5"/>
      </defs>
      <g>
       <use style="fill:#555555;stroke:#555555;stroke-linecap:butt;stroke-width:0.5;" x="697.448788732" xlink:href="#m451ee03cf5" y="315.9"/>
      </g>
     </g>
     <g id="line2d_96">
      <defs>
       <path d="
M0 0
L0 0" id="m451ee03cf5"/>
      </defs>
      <g>
       <use style="fill:#555555;stroke:#555555;stroke-linecap:butt;stroke-width:0.5;" x="697.448788732" xlink:href="#m451ee03cf5" y="35.1"/>
      </g>
     </g>
    </g>
    <g id="xtick_33">
     <g id="line2d_97">
      <path clip-path="url(#pfb8182a99f)" d="
M722.593 315.9
L722.593 35.1" style="fill:none;stroke:#000000;stroke-dasharray:1.000000,3.000000;stroke-dashoffset:0.0;stroke-linecap:butt;stroke-width:0.5;"/>
     </g>
     <g id="line2d_98">
      <defs>
       <path d="
M0 0
L0 0" id="m451ee03cf5"/>
      </defs>
      <g>
       <use style="fill:#555555;stroke:#555555;stroke-linecap:butt;stroke-width:0.5;" x="722.593014085" xlink:href="#m451ee03cf5" y="315.9"/>
      </g>
     </g>
     <g id="line2d_99">
      <defs>
       <path d="
M0 0
L0 0" id="m451ee03cf5"/>
      </defs>
      <g>
       <use style="fill:#555555;stroke:#555555;stroke-linecap:butt;stroke-width:0.5;" x="722.593014085" xlink:href="#m451ee03cf5" y="35.1"/>
      </g>
     </g>
    </g>
    <g id="xtick_34">
     <g id="line2d_100">
      <path clip-path="url(#pfb8182a99f)" d="
M747.737 315.9
L747.737 35.1" style="fill:none;stroke:#000000;stroke-dasharray:1.000000,3.000000;stroke-dashoffset:0.0;stroke-linecap:butt;stroke-width:0.5;"/>
     </g>
     <g id="line2d_101">
      <defs>
       <path d="
M0 0
L0 0" id="m451ee03cf5"/>
      </defs>
      <g>
       <use style="fill:#555555;stroke:#555555;stroke-linecap:butt;stroke-width:0.5;" x="747.737239437" xlink:href="#m451ee03cf5" y="315.9"/>
      </g>
     </g>
     <g id="line2d_102">
      <defs>
       <path d="
M0 0
L0 0" id="m451ee03cf5"/>
      </defs>
      <g>
       <use style="fill:#555555;stroke:#555555;stroke-linecap:butt;stroke-width:0.5;" x="747.737239437" xlink:href="#m451ee03cf5" y="35.1"/>
      </g>
     </g>
    </g>
    <g id="xtick_35">
     <g id="line2d_103">
      <path clip-path="url(#pfb8182a99f)" d="
M772.881 315.9
L772.881 35.1" style="fill:none;stroke:#000000;stroke-dasharray:1.000000,3.000000;stroke-dashoffset:0.0;stroke-linecap:butt;stroke-width:0.5;"/>
     </g>
     <g id="line2d_104">
      <defs>
       <path d="
M0 0
L0 0" id="m451ee03cf5"/>
      </defs>
      <g>
       <use style="fill:#555555;stroke:#555555;stroke-linecap:butt;stroke-width:0.5;" x="772.881464789" xlink:href="#m451ee03cf5" y="315.9"/>
      </g>
     </g>
     <g id="line2d_105">
      <defs>
       <path d="
M0 0
L0 0" id="m451ee03cf5"/>
      </defs>
      <g>
       <use style="fill:#555555;stroke:#555555;stroke-linecap:butt;stroke-width:0.5;" x="772.881464789" xlink:href="#m451ee03cf5" y="35.1"/>
      </g>
     </g>
    </g>
    <g id="text_8">
     <!-- Elapsed Time (s) -->
     <defs>
      <path d="
M18.1094 44.2812
Q20.6562 47.7969 24.9688 49.9375
Q29.2969 52.0938 34.0781 52.0938
Q42.875 52.0938 47.875 44.8438
Q52.875 37.5938 52.875 25.9844
Q52.875 14.2656 47.625 6.46875
Q42.3906 -1.3125 33.5 -1.3125
Q28.7656 -1.3125 24.6406 1.04688
Q20.5156 3.42188 18.1094 7.32812
L18.1094 -20.125
L10.5 -20.125
L10.5 50.875
L18.1094 50.875
z

M18.1094 36.7188
L18.1094 15.5781
Q20.2656 11.2812 23.9219 8.39062
Q27.5938 5.51562 31.5 5.51562
Q37.6406 5.51562 41.2812 11.2812
Q44.9219 17.0469 44.9219 25.5938
Q44.9219 34.375 41.4531 39.9375
Q37.9844 45.5156 31.7812 45.5156
Q23.7344 45.5156 18.1094 36.7188" id="AndaleMono-70"/>
      <path d="
M44.3906 43.6094
Q37.9844 45.7031 32.3281 45.7031
Q26.125 45.7031 22.5 43.625
Q18.8906 41.5469 18.8906 38.0938
Q18.8906 35.8906 20.5469 34.25
Q22.2188 32.625 27.2031 31.2031
L34.4688 29.1094
Q39.5 27.6875 42.6719 25.7031
Q45.8438 23.7344 47.4375 20.9219
Q49.0312 18.1094 49.0312 14.4062
Q49.0312 7.125 42.9219 2.90625
Q36.8125 -1.3125 27.3906 -1.3125
Q18.0156 -1.3125 11.9219 1.51562
L13.375 8.10938
Q19.7812 5.07812 27.0938 5.07812
Q33.4531 5.07812 37.4219 7.4375
Q41.4062 9.8125 41.4062 13.7188
Q41.4062 16.3594 39.4219 18.4375
Q37.4531 20.5156 30.125 22.75
Q24.2188 24.5625 21.4375 25.4688
Q18.6562 26.375 16.2656 28.125
Q13.875 29.8906 12.625 32.3281
Q11.375 34.7656 11.375 37.7969
Q11.375 44.3906 17.1406 48.2344
Q22.9062 52.0938 32.4219 52.0938
Q38.5781 52.0938 46.0938 50
z
" id="AndaleMono-73"/>
      <path d="
M50.9844 0
L43.4062 0
Q42.4844 3.07812 42.4844 8.20312
Q35.9844 -1.3125 24.8125 -1.3125
Q19.1406 -1.3125 14.8125 2.70312
Q10.5 6.73438 10.5 13.0938
Q10.5 16.8438 12.0156 19.7188
Q13.5312 22.6094 16.4531 24.5781
Q19.3906 26.5625 23.5781 27.7031
Q27.7812 28.8594 33.5469 29.2969
L42.0938 29.9844
L42.0938 32.4219
Q42.0938 45.5156 29.8906 45.5156
Q27 45.5156 22.5781 44.2656
Q18.1719 43.0156 14.9844 41.3125
L12.9844 46.7812
Q23.3906 52.0938 32.3281 52.0938
Q49.7031 52.0938 49.7031 33.6875
L49.7031 11.8125
Q49.7031 5.17188 50.9844 0
M42.0938 15.0938
L42.0938 24.3125
Q31.7812 23.3906 27.9531 22.5781
Q24.125 21.7812 21.3125 19.5781
Q18.5 17.3906 18.5 13.625
Q18.5 10.2031 20.8906 8.09375
Q23.2969 6 27 6
Q31.0625 6 35.0625 8.42188
Q39.0625 10.8438 42.0938 15.0938" id="AndaleMono-61"/>
      <path d="
M46.7812 -10.2031
L43.7969 -14.4062
Q32.9062 -6.15625 27.1875 4.78125
Q21.4844 15.7188 21.4844 27.875
Q21.4844 40.1406 27.1406 51
Q32.8125 61.8594 43.7969 70.125
L46.7812 65.9219
Q37.8438 57.9062 33.9062 49.1406
Q29.9844 40.375 29.9844 27.9844
Q29.9844 15.1406 34.0625 6.375
Q38.1406 -2.39062 46.7812 -10.2031" id="AndaleMono-28"/>
      <path d="
M49.5156 0
L41.8906 0
L41.8906 7.32812
Q39.5469 3.5625 35.1719 1.125
Q30.8125 -1.3125 25.9844 -1.3125
Q17.2344 -1.3125 12.1562 6.46875
Q7.07812 14.2656 7.07812 26.2188
Q7.07812 37.4062 12.375 44.75
Q17.6719 52.0938 26.4219 52.0938
Q36.0312 52.0938 41.8906 44.2812
L41.8906 68.8906
L49.5156 68.8906
z

M41.8906 15.5781
L41.8906 36.7188
Q36.4219 45.5156 28.7188 45.5156
Q22.4062 45.5156 18.75 39.9219
Q15.0938 34.3281 15.0938 25.7812
Q15.0938 17 18.5312 11.25
Q21.9688 5.51562 27.9844 5.51562
Q30.8594 5.51562 33.7812 7.07812
Q36.7188 8.64062 39.2969 11.7656
Q41.8906 14.8906 41.8906 15.5781" id="AndaleMono-64"/>
      <path d="
M51.2188 25.2031
L16.3125 25.2031
Q16.3125 16.5469 21.3125 10.9375
Q26.3125 5.32812 33.5938 5.32812
Q40.5312 5.32812 47.9062 7.8125
L49.2188 1.70312
Q42.4844 -1.3125 33.5 -1.3125
Q22.1719 -1.3125 15.2344 5.95312
Q8.29688 13.2344 8.29688 25.5938
Q8.29688 37.7031 14.5156 44.8906
Q20.75 52.0938 30.6094 52.0938
Q39.4062 52.0938 45.3125 45.4062
Q51.2188 38.7188 51.2188 27.5938
z

M42.9219 31.3906
Q42.9219 37.3594 39.2031 41.4375
Q35.5 45.5156 30.9062 45.5156
Q25 45.5156 21.1094 41.6094
Q17.2344 37.7031 16.7969 31.3906
z
" id="AndaleMono-65"/>
      <path d="
M33.2969 70.125
Q35.4531 70.125 36.9688 68.5781
Q38.4844 67.0469 38.4844 64.8906
Q38.4844 62.6406 36.9844 61.125
Q35.5 59.625 33.2969 59.625
Q31.2969 59.625 29.75 61.2031
Q28.2188 62.7969 28.2188 64.8906
Q28.2188 67 29.75 68.5625
Q31.2969 70.125 33.2969 70.125
M37.0156 0
L29.3906 0
L29.3906 44.2812
L14.4062 44.2812
L14.4062 50.875
L37.0156 50.875
z
" id="AndaleMono-69"/>
      <path id="AndaleMono-20"/>
      <path d="
M46 0
L25.2031 0
L25.2031 62.3125
L11.9219 62.3125
L11.9219 68.8906
L32.8125 68.8906
L32.8125 6.59375
L46 6.59375
z
" id="AndaleMono-6c"/>
      <path d="
M53.7188 0
L46.0938 0
L46.0938 33.4062
Q46.0938 45.5156 41.6094 45.5156
Q39.3125 45.5156 36.5469 41.3281
Q33.7969 37.1562 33.7969 36.7188
L33.7969 0
L26.2188 0
L26.2188 33.4062
Q26.2188 45.5156 21.6875 45.5156
Q19.4375 45.5156 16.6719 41.3281
Q13.9219 37.1562 13.9219 36.7188
L13.9219 0
L6.29688 0
L6.29688 50.875
L13.625 50.875
L13.625 43.2188
Q15.7656 47.2656 18.7188 49.6719
Q21.6875 52.0938 24.6094 52.0938
Q27.6875 52.0938 30.125 49.6719
Q32.5625 47.2656 33.5 43.2188
Q35.6406 47.2656 38.625 49.6719
Q41.6094 52.0938 44.4844 52.0938
Q53.7188 52.0938 53.7188 35.5938
z
" id="AndaleMono-6d"/>
      <path d="
M16.2188 70.125
Q27.1562 61.8594 32.8125 51
Q38.4844 40.1406 38.4844 27.875
Q38.4844 15.7188 32.7812 4.78125
Q27.0938 -6.15625 16.2188 -14.4062
L13.1875 -10.2031
Q22.125 -2.29688 26.0469 6.60938
Q29.9844 15.5312 29.9844 27.9844
Q29.9844 40.8281 25.9219 49.4688
Q21.875 58.1094 13.1875 65.9219
z
" id="AndaleMono-29"/>
      <path d="
M55.3281 62.4062
L34.0781 62.4062
L34.0781 0
L26.125 0
L26.125 62.4062
L4.78125 62.4062
L4.78125 68.8906
L55.3281 68.8906
z
" id="AndaleMono-54"/>
      <path d="
M48.4844 0
L12.5 0
L12.5 68.8906
L48.1875 68.8906
L48.1875 61.9219
L20.5156 61.9219
L20.5156 40.5781
L47.125 40.5781
L47.125 33.5938
L20.5156 33.5938
L20.5156 6.98438
L48.4844 6.98438
z
" id="AndaleMono-45"/>
     </defs>
     <g style="fill:#555555;" transform="translate(374.596875 342.468125)scale(0.12 -0.12)">
      <use xlink:href="#AndaleMono-45"/>
      <use x="60.009765625" xlink:href="#AndaleMono-6c"/>
      <use x="120.01953125" xlink:href="#AndaleMono-61"/>
      <use x="180.029296875" xlink:href="#AndaleMono-70"/>
      <use x="240.0390625" xlink:href="#AndaleMono-73"/>
      <use x="300.048828125" xlink:href="#AndaleMono-65"/>
      <use x="360.05859375" xlink:href="#AndaleMono-64"/>
      <use x="420.068359375" xlink:href="#AndaleMono-20"/>
      <use x="480.078125" xlink:href="#AndaleMono-54"/>
      <use x="540.087890625" xlink:href="#AndaleMono-69"/>
      <use x="600.09765625" xlink:href="#AndaleMono-6d"/>
      <use x="660.107421875" xlink:href="#AndaleMono-65"/>
      <use x="720.1171875" xlink:href="#AndaleMono-20"/>
      <use x="780.126953125" xlink:href="#AndaleMono-28"/>
      <use x="840.13671875" xlink:href="#AndaleMono-73"/>
      <use x="900.146484375" xlink:href="#AndaleMono-29"/>
     </g>
    </g>
   </g>
   <g id="matplotlib.axis_2">
    <g id="ytick_1">
     <g id="line2d_106">
      <path clip-path="url(#pfb8182a99f)" d="
M73.872 307.125
L787.968 307.125" style="fill:none;stroke:#000000;stroke-dasharray:1.000000,3.000000;stroke-dashoffset:0.0;stroke-linecap:butt;stroke-width:0.5;"/>
     </g>
     <g id="line2d_107">
      <defs>
       <path d="
M0 0
L0 0" id="m7d67dc973a"/>
      </defs>
      <g>
       <use style="fill:#555555;stroke:#555555;stroke-linecap:butt;stroke-width:0.5;" x="73.872" xlink:href="#m7d67dc973a" y="307.125"/>
      </g>
     </g>
     <g id="line2d_108">
      <defs>
       <path d="
M0 0
L0 0" id="m7d67dc973a"/>
      </defs>
      <g>
       <use style="fill:#555555;stroke:#555555;stroke-linecap:butt;stroke-width:0.5;" x="787.968" xlink:href="#m7d67dc973a" y="307.125"/>
      </g>
     </g>
     <g id="text_9">
      <!-- 25.0 -->
      <defs>
       <path d="
M29.6875 11.1875
Q32.2812 11.1875 34.0312 9.42188
Q35.7969 7.67188 35.7969 5.07812
Q35.7969 2.4375 34.0156 0.5625
Q32.2344 -1.3125 29.6875 -1.3125
Q27.2031 -1.3125 25.4375 0.5625
Q23.6875 2.4375 23.6875 5.07812
Q23.6875 7.71875 25.4219 9.45312
Q27.1562 11.1875 29.6875 11.1875" id="AndaleMono-2e"/>
      </defs>
      <g style="fill:#555555;" transform="translate(45.6095 310.5703125)scale(0.1 -0.1)">
       <use xlink:href="#AndaleMono-32"/>
       <use x="60.009765625" xlink:href="#AndaleMono-35"/>
       <use x="120.01953125" xlink:href="#AndaleMono-2e"/>
       <use x="180.029296875" xlink:href="#AndaleMono-30"/>
      </g>
     </g>
    </g>
    <g id="ytick_2">
     <g id="line2d_109">
      <path clip-path="url(#pfb8182a99f)" d="
M73.872 272.025
L787.968 272.025" style="fill:none;stroke:#000000;stroke-dasharray:1.000000,3.000000;stroke-dashoffset:0.0;stroke-linecap:butt;stroke-width:0.5;"/>
     </g>
     <g id="line2d_110">
      <defs>
       <path d="
M0 0
L0 0" id="m7d67dc973a"/>
      </defs>
      <g>
       <use style="fill:#555555;stroke:#555555;stroke-linecap:butt;stroke-width:0.5;" x="73.872" xlink:href="#m7d67dc973a" y="272.025"/>
      </g>
     </g>
     <g id="line2d_111">
      <defs>
       <path d="
M0 0
L0 0" id="m7d67dc973a"/>
      </defs>
      <g>
       <use style="fill:#555555;stroke:#555555;stroke-linecap:butt;stroke-width:0.5;" x="787.968" xlink:href="#m7d67dc973a" y="272.025"/>
      </g>
     </g>
     <g id="text_10">
      <!-- 25.2 -->
      <g style="fill:#555555;" transform="translate(46.07825 275.4703125)scale(0.1 -0.1)">
       <use xlink:href="#AndaleMono-32"/>
       <use x="60.009765625" xlink:href="#AndaleMono-35"/>
       <use x="120.01953125" xlink:href="#AndaleMono-2e"/>
       <use x="180.029296875" xlink:href="#AndaleMono-32"/>
      </g>
     </g>
    </g>
    <g id="ytick_3">
     <g id="line2d_112">
      <path clip-path="url(#pfb8182a99f)" d="
M73.872 236.925
L787.968 236.925" style="fill:none;stroke:#000000;stroke-dasharray:1.000000,3.000000;stroke-dashoffset:0.0;stroke-linecap:butt;stroke-width:0.5;"/>
     </g>
     <g id="line2d_113">
      <defs>
       <path d="
M0 0
L0 0" id="m7d67dc973a"/>
      </defs>
      <g>
       <use style="fill:#555555;stroke:#555555;stroke-linecap:butt;stroke-width:0.5;" x="73.872" xlink:href="#m7d67dc973a" y="236.925"/>
      </g>
     </g>
     <g id="line2d_114">
      <defs>
       <path d="
M0 0
L0 0" id="m7d67dc973a"/>
      </defs>
      <g>
       <use style="fill:#555555;stroke:#555555;stroke-linecap:butt;stroke-width:0.5;" x="787.968" xlink:href="#m7d67dc973a" y="236.925"/>
      </g>
     </g>
     <g id="text_11">
      <!-- 25.4 -->
      <g style="fill:#555555;" transform="translate(45.6298125 240.3703125)scale(0.1 -0.1)">
       <use xlink:href="#AndaleMono-32"/>
       <use x="60.009765625" xlink:href="#AndaleMono-35"/>
       <use x="120.01953125" xlink:href="#AndaleMono-2e"/>
       <use x="180.029296875" xlink:href="#AndaleMono-34"/>
      </g>
     </g>
    </g>
    <g id="ytick_4">
     <g id="line2d_115">
      <path clip-path="url(#pfb8182a99f)" d="
M73.872 201.825
L787.968 201.825" style="fill:none;stroke:#000000;stroke-dasharray:1.000000,3.000000;stroke-dashoffset:0.0;stroke-linecap:butt;stroke-width:0.5;"/>
     </g>
     <g id="line2d_116">
      <defs>
       <path d="
M0 0
L0 0" id="m7d67dc973a"/>
      </defs>
      <g>
       <use style="fill:#555555;stroke:#555555;stroke-linecap:butt;stroke-width:0.5;" x="73.872" xlink:href="#m7d67dc973a" y="201.825"/>
      </g>
     </g>
     <g id="line2d_117">
      <defs>
       <path d="
M0 0
L0 0" id="m7d67dc973a"/>
      </defs>
      <g>
       <use style="fill:#555555;stroke:#555555;stroke-linecap:butt;stroke-width:0.5;" x="787.968" xlink:href="#m7d67dc973a" y="201.825"/>
      </g>
     </g>
     <g id="text_12">
      <!-- 25.6 -->
      <g style="fill:#555555;" transform="translate(45.6595 205.2703125)scale(0.1 -0.1)">
       <use xlink:href="#AndaleMono-32"/>
       <use x="60.009765625" xlink:href="#AndaleMono-35"/>
       <use x="120.01953125" xlink:href="#AndaleMono-2e"/>
       <use x="180.029296875" xlink:href="#AndaleMono-36"/>
      </g>
     </g>
    </g>
    <g id="ytick_5">
     <g id="line2d_118">
      <path clip-path="url(#pfb8182a99f)" d="
M73.872 166.725
L787.968 166.725" style="fill:none;stroke:#000000;stroke-dasharray:1.000000,3.000000;stroke-dashoffset:0.0;stroke-linecap:butt;stroke-width:0.5;"/>
     </g>
     <g id="line2d_119">
      <defs>
       <path d="
M0 0
L0 0" id="m7d67dc973a"/>
      </defs>
      <g>
       <use style="fill:#555555;stroke:#555555;stroke-linecap:butt;stroke-width:0.5;" x="73.872" xlink:href="#m7d67dc973a" y="166.725"/>
      </g>
     </g>
     <g id="line2d_120">
      <defs>
       <path d="
M0 0
L0 0" id="m7d67dc973a"/>
      </defs>
      <g>
       <use style="fill:#555555;stroke:#555555;stroke-linecap:butt;stroke-width:0.5;" x="787.968" xlink:href="#m7d67dc973a" y="166.725"/>
      </g>
     </g>
     <g id="text_13">
      <!-- 25.8 -->
      <defs>
       <path d="
M36.9219 37.7969
Q43.9531 35.75 47.8281 30.8125
Q51.7031 25.875 51.7031 19.2812
Q51.7031 9.8125 45.4219 4.25
Q39.1562 -1.3125 29.9844 -1.3125
Q20.3594 -1.3125 14.1875 4.29688
Q8.01562 9.90625 8.01562 19.1875
Q8.01562 25.7344 12.0156 30.7031
Q16.0156 35.6875 23.1875 37.7969
Q17.4844 39.2656 14.0312 43.4375
Q10.5938 47.6094 10.5938 52.7812
Q10.5938 59.4219 15.8594 64.8125
Q21.1406 70.2188 29.7812 70.2188
Q38.3281 70.2188 43.9219 64.8438
Q49.5156 59.4688 49.5156 52.7812
Q49.5156 47.75 46 43.5312
Q42.4844 39.3125 36.9219 37.7969
M29.7812 41.1094
Q30.0312 41.1094 32.125 41.6875
Q34.2344 42.2812 35.7188 43.1406
Q37.2031 44 38.4688 45.3125
Q39.75 46.625 40.5312 48.4062
Q41.3125 50.2031 41.3125 52.3906
Q41.3125 57.0781 37.9375 60.1719
Q34.5781 63.2812 29.7812 63.2812
Q25.1406 63.2812 21.8125 60.1094
Q18.5 56.9375 18.5 52.3906
Q18.5 49.5156 19.7031 47.3594
Q20.9062 45.2188 22.6875 43.8906
Q24.4688 42.5781 26.7812 41.8438
Q29.1094 41.1094 29.7812 41.1094
M29.7812 34.2812
Q16.4062 30.375 16.4062 19.5781
Q16.4062 13.2812 20.4531 9.5
Q24.5156 5.71875 29.9844 5.71875
Q35.6406 5.71875 39.5156 9.45312
Q43.4062 13.1875 43.4062 19.5781
Q43.4062 24.4219 40.7188 28.25
Q38.0312 32.0781 29.7812 34.2812" id="AndaleMono-38"/>
      </defs>
      <g style="fill:#555555;" transform="translate(45.6985625 170.1703125)scale(0.1 -0.1)">
       <use xlink:href="#AndaleMono-32"/>
       <use x="60.009765625" xlink:href="#AndaleMono-35"/>
       <use x="120.01953125" xlink:href="#AndaleMono-2e"/>
       <use x="180.029296875" xlink:href="#AndaleMono-38"/>
      </g>
     </g>
    </g>
    <g id="ytick_6">
     <g id="line2d_121">
      <path clip-path="url(#pfb8182a99f)" d="
M73.872 131.625
L787.968 131.625" style="fill:none;stroke:#000000;stroke-dasharray:1.000000,3.000000;stroke-dashoffset:0.0;stroke-linecap:butt;stroke-width:0.5;"/>
     </g>
     <g id="line2d_122">
      <defs>
       <path d="
M0 0
L0 0" id="m7d67dc973a"/>
      </defs>
      <g>
       <use style="fill:#555555;stroke:#555555;stroke-linecap:butt;stroke-width:0.5;" x="73.872" xlink:href="#m7d67dc973a" y="131.625"/>
      </g>
     </g>
     <g id="line2d_123">
      <defs>
       <path d="
M0 0
L0 0" id="m7d67dc973a"/>
      </defs>
      <g>
       <use style="fill:#555555;stroke:#555555;stroke-linecap:butt;stroke-width:0.5;" x="787.968" xlink:href="#m7d67dc973a" y="131.625"/>
      </g>
     </g>
     <g id="text_14">
      <!-- 26.0 -->
      <g style="fill:#555555;" transform="translate(45.6095 135.0703125)scale(0.1 -0.1)">
       <use xlink:href="#AndaleMono-32"/>
       <use x="60.009765625" xlink:href="#AndaleMono-36"/>
       <use x="120.01953125" xlink:href="#AndaleMono-2e"/>
       <use x="180.029296875" xlink:href="#AndaleMono-30"/>
      </g>
     </g>
    </g>
    <g id="ytick_7">
     <g id="line2d_124">
      <path clip-path="url(#pfb8182a99f)" d="
M73.872 96.525
L787.968 96.525" style="fill:none;stroke:#000000;stroke-dasharray:1.000000,3.000000;stroke-dashoffset:0.0;stroke-linecap:butt;stroke-width:0.5;"/>
     </g>
     <g id="line2d_125">
      <defs>
       <path d="
M0 0
L0 0" id="m7d67dc973a"/>
      </defs>
      <g>
       <use style="fill:#555555;stroke:#555555;stroke-linecap:butt;stroke-width:0.5;" x="73.872" xlink:href="#m7d67dc973a" y="96.525"/>
      </g>
     </g>
     <g id="line2d_126">
      <defs>
       <path d="
M0 0
L0 0" id="m7d67dc973a"/>
      </defs>
      <g>
       <use style="fill:#555555;stroke:#555555;stroke-linecap:butt;stroke-width:0.5;" x="787.968" xlink:href="#m7d67dc973a" y="96.525"/>
      </g>
     </g>
     <g id="text_15">
      <!-- 26.2 -->
      <g style="fill:#555555;" transform="translate(46.07825 99.9703125)scale(0.1 -0.1)">
       <use xlink:href="#AndaleMono-32"/>
       <use x="60.009765625" xlink:href="#AndaleMono-36"/>
       <use x="120.01953125" xlink:href="#AndaleMono-2e"/>
       <use x="180.029296875" xlink:href="#AndaleMono-32"/>
      </g>
     </g>
    </g>
    <g id="ytick_8">
     <g id="line2d_127">
      <path clip-path="url(#pfb8182a99f)" d="
M73.872 61.425
L787.968 61.425" style="fill:none;stroke:#000000;stroke-dasharray:1.000000,3.000000;stroke-dashoffset:0.0;stroke-linecap:butt;stroke-width:0.5;"/>
     </g>
     <g id="line2d_128">
      <defs>
       <path d="
M0 0
L0 0" id="m7d67dc973a"/>
      </defs>
      <g>
       <use style="fill:#555555;stroke:#555555;stroke-linecap:butt;stroke-width:0.5;" x="73.872" xlink:href="#m7d67dc973a" y="61.425"/>
      </g>
     </g>
     <g id="line2d_129">
      <defs>
       <path d="
M0 0
L0 0" id="m7d67dc973a"/>
      </defs>
      <g>
       <use style="fill:#555555;stroke:#555555;stroke-linecap:butt;stroke-width:0.5;" x="787.968" xlink:href="#m7d67dc973a" y="61.425"/>
      </g>
     </g>
     <g id="text_16">
      <!-- 26.4 -->
      <g style="fill:#555555;" transform="translate(45.6298125 64.8703125)scale(0.1 -0.1)">
       <use xlink:href="#AndaleMono-32"/>
       <use x="60.009765625" xlink:href="#AndaleMono-36"/>
       <use x="120.01953125" xlink:href="#AndaleMono-2e"/>
       <use x="180.029296875" xlink:href="#AndaleMono-34"/>
      </g>
     </g>
    </g>
    <g id="text_17">
     <!-- Capacitor Voltage -->
     <defs>
      <path d="
M49.5156 1.70312
Q42.875 -1.3125 34.9062 -1.3125
Q22.9062 -1.3125 15.75 5.98438
Q8.59375 13.2812 8.59375 25.3906
Q8.59375 37.5 15.7969 44.7969
Q23 52.0938 34.7188 52.0938
Q42.3906 52.0938 49.3125 49.4219
L47.3125 43.1094
Q40.375 45.5156 34.8125 45.5156
Q26.4219 45.5156 21.5156 40.0938
Q16.6094 34.6719 16.6094 25.3906
Q16.6094 16.8906 21.6875 11.1094
Q26.7656 5.32812 34.9062 5.32812
Q41.3594 5.32812 48.1875 7.8125
z
" id="AndaleMono-63"/>
      <path d="
M50.4844 49.5156
L47.4062 42.1875
Q42.3906 44.3906 38.7188 44.3906
Q35.3594 44.3906 32.125 42.4531
Q28.9062 40.5312 26.1875 36.9375
Q23.4844 33.3438 23.4844 32.9062
L23.4844 0
L15.9219 0
L15.9219 50.875
L23.4844 50.875
L23.4844 40.5781
Q29.5938 52.0938 39.3125 52.0938
Q45.0625 52.0938 50.4844 49.5156" id="AndaleMono-72"/>
      <path d="
M50.2031 2.29688
Q42.5312 -1.21875 35.1094 -1.21875
Q21.4844 -1.21875 21.4844 13.1875
L21.4844 44.2812
L11.7188 44.2812
L11.7188 50.875
L21.4844 50.875
L21.4844 64.7969
L28.9062 64.7969
L28.9062 50.875
L46.1875 50.875
L46.1875 44.2812
L28.9062 44.2812
L28.9062 15.1875
Q28.9062 10.5469 30.9531 7.98438
Q33.0156 5.42188 36.5312 5.42188
Q42.7812 5.42188 48.875 8.20312
z
" id="AndaleMono-74"/>
      <path d="
M29.9844 52.0938
Q40.4844 52.0938 46.6719 44.7656
Q52.875 37.4531 52.875 25.4844
Q52.875 13.4219 46.6719 6.04688
Q40.4844 -1.3125 29.9844 -1.3125
Q19.4375 -1.3125 13.25 6.03125
Q7.07812 13.375 7.07812 25.4844
Q7.07812 37.5 13.2812 44.7969
Q19.4844 52.0938 29.9844 52.0938
M29.9844 5.32812
Q36.9219 5.32812 40.9219 11.1875
Q44.9219 17.0469 44.9219 25.3906
Q44.9219 34.1875 40.9688 39.8438
Q37.0156 45.5156 29.9844 45.5156
Q22.9062 45.5156 19 39.9219
Q15.0938 34.3281 15.0938 25.3906
Q15.0938 16.8906 19.0469 11.1094
Q23 5.32812 29.9844 5.32812" id="AndaleMono-6f"/>
      <path d="
M57.1719 68.8906
L34.7188 0
L25.0938 0
L2.59375 68.8906
L10.9844 68.8906
L29.8906 9.28125
L48.875 68.8906
z
" id="AndaleMono-56"/>
      <path d="
M52.2969 4.29688
Q44.1875 -1.3125 33.5 -1.3125
Q20.125 -1.3125 13.1562 7.85938
Q6.20312 17.0469 6.20312 34.4219
Q6.20312 51.2188 12.9375 60.7188
Q19.6719 70.2188 33.5 70.2188
Q38.4844 70.2188 43.3594 68.9375
Q48.25 67.6719 51.2188 65.5781
L48.5781 59.2812
Q41.7031 63.1875 33.5 63.1875
Q23.9688 63.1875 19.3281 56.2656
Q14.7031 49.3594 14.7031 34.4219
Q14.7031 5.71875 33.5 5.71875
Q41.4531 5.71875 49.8125 10.5938
z
" id="AndaleMono-43"/>
      <path d="
M24.6094 19.1875
Q17.4844 15.7188 17.4844 13.0938
Q17.4844 11.6719 19.1094 10.6875
Q20.75 9.71875 23.5781 9.71875
L40.7188 10.2031
Q46.8281 10.2031 50.2188 7.21875
Q53.6094 4.25 53.6094 -1.21875
Q53.6094 -9.85938 45.8906 -14.9844
Q38.1875 -20.125 27.875 -20.125
Q19.4375 -20.125 14.0625 -16.5781
Q8.6875 -13.0312 8.6875 -7.42188
Q8.6875 -1.3125 17 2.875
Q10.1094 6.10938 10.1094 10.7969
Q10.1094 16.1562 19 20.7969
Q14.8906 23.2969 12.6875 27.25
Q10.5 31.2031 10.5 35.5938
Q10.5 42.7812 15.375 47.3906
Q20.2656 52 27.5938 52
Q32.8594 52 37.1094 49.8125
L52.2031 52.0938
L52.2031 44.6719
L42.4844 44.6719
Q44.6719 40.8281 44.6719 35.5938
Q44.6719 28.6562 39.8438 23.875
Q35.0156 19.0938 27.5938 19.0938
Q26.0312 19.0938 24.6094 19.1875
M27.5938 25
Q31.7812 25 34.4375 27.9062
Q37.1094 30.8125 37.1094 35.5
Q37.1094 40.4375 34.5156 43.2188
Q31.9375 46 27.5938 46
Q23.5312 46 20.7656 43.0938
Q18.0156 40.1875 18.0156 35.5
Q18.0156 30.9062 20.7656 27.9531
Q23.5312 25 27.5938 25
M27.875 -14.2031
Q35.4062 -14.2031 40.7031 -10.8594
Q46 -7.51562 46 -2.59375
Q46 2.48438 38.4844 2.48438
Q35.9844 2.48438 29.8906 2.20312
Q26.0312 2 23.8281 2
Q22.75 2 20.4844 0.234375
Q18.2188 -1.51562 17.0156 -3.29688
Q15.8281 -5.07812 15.8281 -6.98438
Q15.8281 -9.96875 19.1406 -12.0781
Q22.4688 -14.2031 27.875 -14.2031" id="AndaleMono-67"/>
     </defs>
     <g style="fill:#555555;" transform="translate(31.02624 233.773125)rotate(-90.0)scale(0.12 -0.12)">
      <use xlink:href="#AndaleMono-43"/>
      <use x="60.009765625" xlink:href="#AndaleMono-61"/>
      <use x="120.01953125" xlink:href="#AndaleMono-70"/>
      <use x="180.029296875" xlink:href="#AndaleMono-61"/>
      <use x="240.0390625" xlink:href="#AndaleMono-63"/>
      <use x="300.048828125" xlink:href="#AndaleMono-69"/>
      <use x="360.05859375" xlink:href="#AndaleMono-74"/>
      <use x="420.068359375" xlink:href="#AndaleMono-6f"/>
      <use x="480.078125" xlink:href="#AndaleMono-72"/>
      <use x="540.087890625" xlink:href="#AndaleMono-20"/>
      <use x="600.09765625" xlink:href="#AndaleMono-56"/>
      <use x="660.107421875" xlink:href="#AndaleMono-6f"/>
      <use x="720.1171875" xlink:href="#AndaleMono-6c"/>
      <use x="780.126953125" xlink:href="#AndaleMono-74"/>
      <use x="840.13671875" xlink:href="#AndaleMono-61"/>
      <use x="900.146484375" xlink:href="#AndaleMono-67"/>
      <use x="960.15625" xlink:href="#AndaleMono-65"/>
     </g>
    </g>
   </g>
   <g id="line2d_130">
    <path clip-path="url(#pfb8182a99f)" d="
M93.9874 307.125
L96.0188 303.615
L100.079 307.125
L102.107 305.37
L106.07 305.37
L108.113 307.125
L110.144 303.615
L112.174 301.86
L114.205 305.37
L118.267 305.37
L120.296 303.615
L124.359 303.615
L126.388 301.86
L128.419 303.615
L132.392 300.105
L136.451 296.595
L142.544 296.595
L146.607 293.085
L148.637 293.085
L150.667 289.575
L152.698 291.33
L154.628 287.82
L158.684 284.31
L162.762 284.31
L164.792 280.8
L166.813 280.8
L168.843 284.31
L170.874 280.8
L182.968 280.8
L187.029 273.78
L189.06 273.78
L191.083 272.025
L193.121 272.025
L195.152 268.515
L197.179 268.515
L199.204 266.76
L201.243 261.495
L203.275 263.25
L205.207 261.495
L211.298 261.495
L213.329 259.74
L215.361 261.495
L219.421 257.985
L221.44 252.72
L223.483 256.23
L225.513 252.72
L227.544 250.965
L229.576 250.965
L231.606 249.21
L233.538 249.21
L235.568 245.7
L237.592 245.7
L239.63 247.455
L241.65 245.7
L243.681 249.21
L247.743 242.19
L249.774 243.945
L251.804 240.435
L253.825 240.435
L261.867 233.415
L265.929 233.415
L267.959 229.905
L269.99 231.66
L272.01 229.905
L280.144 229.905
L282.073 226.395
L286.145 226.395
L288.177 224.64
L290.207 224.64
L294.268 221.13
L296.299 224.64
L298.329 222.885
L304.422 222.885
L308.393 219.375
L310.423 219.375
L312.454 215.865
L326.663 215.865
L328.689 212.355
L330.721 214.11
L332.652 212.355
L334.684 212.355
L336.713 208.845
L338.744 207.09
L340.774 208.845
L342.806 203.58
L344.838 205.335
L346.867 205.335
L348.897 201.825
L350.929 201.825
L352.959 200.07
L356.919 200.07
L363.023 194.805
L367.084 194.805
L369.115 191.295
L371.145 193.05
L373.177 191.295
L375.208 187.785
L377.238 187.785
L379.268 184.275
L381.198 186.03
L385.27 182.52
L387.302 182.52
L389.332 180.765
L393.393 184.275
L395.424 180.765
L397.454 180.765
L399.485 177.255
L401.517 175.5
L407.485 175.5
L411.568 171.99
L413.591 173.745
L415.624 168.48
L417.661 170.235
L419.691 170.235
L421.722 168.48
L423.752 170.235
L425.784 166.725
L429.845 166.725
L431.775 164.97
L433.817 164.97
L435.847 161.46
L443.972 161.46
L445.994 163.215
L448.032 161.46
L450.063 161.46
L452.093 156.195
L454.022 156.195
L456.063 154.44
L460.125 154.44
L462.156 150.93
L466.217 150.93
L468.247 149.175
L472.3 149.175
L474.33 147.42
L476.362 149.175
L478.401 147.42
L480.333 149.175
L484.395 145.665
L486.418 147.42
L488.456 143.91
L490.487 143.91
L496.579 138.645
L500.631 138.645
L502.66 136.89
L504.692 133.38
L510.694 133.38
L512.723 131.625
L514.756 128.115
L516.786 129.87
L520.846 126.36
L524.908 126.36
L526.931 124.605
L528.971 124.605
L530.9 122.85
L532.942 124.605
L534.972 124.605
L541.064 119.34
L543.096 119.34
L545.126 117.585
L547.157 114.075
L549.187 115.83
L551.217 114.075
L553.248 117.585
L555.179 117.585
L559.25 114.075
L565.342 114.075
L567.373 112.32
L569.404 112.32
L573.455 108.81
L575.495 110.565
L577.517 107.055
L579.445 107.055
L581.488 105.3
L583.518 105.3
L585.55 103.545
L589.61 103.545
L593.672 100.035
L595.703 101.79
L597.734 100.035
L599.765 96.525
L601.786 94.77
L603.826 91.26
L605.756 91.26
L607.789 89.505
L611.858 89.505
L617.95 84.24
L624.041 84.24
L626.073 80.73
L628.105 82.485
L630.032 80.73
L632.067 77.22
L634.097 78.975
L636.128 75.465
L638.159 73.71
L640.189 73.71
L642.221 70.2
L644.251 71.955
L646.282 71.955
L648.311 70.2
L650.335 70.2
L652.372 68.445
L654.394 70.2
L656.426 70.2
L658.356 66.69
L660.386 68.445
L662.417 66.69
L664.432 66.69
L666.468 68.445
L668.509 66.69
L670.541 66.69
L674.601 63.18
L682.623 63.18
L684.667 59.67
L686.696 61.425
L688.726 61.425
L690.746 59.67
L692.783 59.67
L694.818 56.16
L696.85 59.67
L700.911 56.16
L702.94 56.16
L704.971 52.65
L706.899 52.65
L708.942 50.895
L710.973 50.895
L713.005 52.65
L717.066 49.14
L719.096 50.895
L721.129 49.14
L725.185 49.14
L727.22 45.63
L729.25 45.63
L729.25 45.63" style="fill:none;stroke:#694b3a;"/>
   </g>
   <g id="line2d_131">
    <path clip-path="url(#pfb8182a99f)" d="
M93.9874 307.125
L96.0213 307.125
L98.0475 301.86
L100.091 301.86
L104.148 294.84
L106.188 287.82
L108.203 287.82
L110.247 286.065
L116.337 275.535
L118.265 275.535
L120.306 270.27
L122.326 272.025
L126.399 265.005
L128.429 263.25
L130.452 257.985
L132.491 257.985
L134.522 256.23
L136.552 250.965
L138.582 249.21
L140.613 249.21
L144.587 242.19
L146.616 238.68
L148.646 242.19
L150.678 235.17
L152.709 233.415
L154.74 233.415
L156.759 226.395
L158.801 224.64
L160.836 226.395
L162.852 226.395
L164.883 222.885
L166.811 221.13
L168.853 217.62
L170.885 217.62
L172.916 212.355
L174.946 212.355
L176.976 208.845
L179.008 201.825
L181.038 201.825
L183.072 200.07
L185.1 201.825
L193.123 187.785
L199.216 182.52
L201.247 179.01
L203.277 177.255
L205.308 171.99
L207.338 173.745
L209.369 168.48
L213.43 168.48
L215.462 164.97
L217.491 159.705
L219.42 157.95
L221.463 157.95
L223.493 154.44
L229.591 154.44
L231.616 150.93
L233.638 150.93
L235.677 145.665
L239.738 145.665
L241.667 143.91
L245.73 143.91
L249.792 136.89
L251.826 135.135
L255.885 135.135
L257.916 131.625
L259.946 133.38
L261.976 129.87
L264.007 128.115
L265.937 128.115
L270.02 124.605
L272.041 121.095
L276.102 117.585
L280.163 110.565
L282.193 110.565
L286.256 107.055
L288.286 103.545
L290.316 101.79
L292.246 103.545
L296.308 100.035
L298.338 100.035
L300.392 96.525
L302.41 96.525
L304.442 98.28
L310.537 93.015
L314.587 93.015
L316.514 89.505
L322.61 84.24
L324.638 85.995
L326.667 82.485
L334.793 75.465
L336.823 75.465
L340.785 68.445
L342.834 66.69
L346.895 66.69
L348.926 64.935
L350.956 66.69
L352.987 59.67
L355.018 57.915
L357.05 57.915
L359.08 56.16
L361.11 52.65
L363.148 52.65
L365.067 54.405
L367.105 54.405
L371.175 50.895
L373.202 50.895
L375.229 47.385
L377.263 47.385
L377.263 47.385" style="fill:none;stroke:#694b3a;"/>
   </g>
   <g id="line2d_132">
    <path clip-path="url(#pfb8182a99f)" d="
M93.9874 301.86
L96.0187 301.86
L98.0488 293.085
L100.079 289.575
L102.11 287.82
L104.038 284.31
L106.08 275.535
L108.112 272.025
L110.144 266.76
L112.173 265.005
L114.204 261.495
L116.234 261.495
L118.265 259.74
L120.295 252.72
L122.326 250.965
L124.359 249.21
L126.388 245.7
L128.318 243.945
L130.36 240.435
L132.39 236.925
L134.421 235.17
L136.452 229.905
L138.484 226.395
L140.514 228.15
L142.534 222.885
L144.565 221.13
L146.596 214.11
L148.625 214.11
L150.656 210.6
L152.688 208.845
L154.617 203.58
L156.649 205.335
L158.68 200.07
L160.711 198.315
L162.74 189.54
L164.772 187.785
L166.804 182.52
L168.834 177.255
L170.866 173.745
L172.895 170.235
L174.924 168.48
L176.956 166.725
L178.886 166.725
L180.928 161.46
L182.958 161.46
L184.989 154.44
L187.02 156.195
L189.05 152.685
L191.083 150.93
L193.112 147.42
L195.144 145.665
L197.173 142.155
L199.204 142.155
L201.235 136.89
L203.163 135.135
L205.205 135.135
L207.236 131.625
L209.268 128.115
L211.299 124.605
L213.329 122.85
L215.36 121.095
L217.39 119.34
L219.421 115.83
L221.451 114.075
L223.473 108.81
L225.503 107.055
L227.534 101.79
L229.464 100.035
L231.505 103.545
L233.535 101.79
L235.566 96.525
L237.598 91.26
L239.628 87.75
L241.659 87.75
L243.689 84.24
L245.72 84.24
L247.75 80.73
L249.778 78.975
L251.814 77.22
L253.753 78.975
L255.783 75.465
L257.814 75.465
L259.845 70.2
L261.877 68.445
L263.906 68.445
L265.938 66.69
L267.967 64.935
L269.99 64.935
L272.016 61.425
L274.064 59.67
L276.089 56.16
L278.021 54.405
L280.062 52.65
L282.093 49.14
L284.123 49.14
L286.154 47.385
L288.184 45.63" style="fill:none;stroke:#694b3a;"/>
   </g>
   <g id="line2d_133">
    <path clip-path="url(#pfb8182a99f)" d="
M93.9874 305.37
L96.0184 301.86
L98.048 298.35
L100.079 291.33
L102.11 284.31
L104.141 280.8
L106.171 275.535
L108.202 266.76
L110.132 261.495
L112.173 256.23
L114.205 249.21
L116.235 240.435
L118.268 236.925
L120.297 228.15
L122.327 226.395
L124.357 221.13
L126.388 215.865
L128.419 212.355
L130.449 205.335
L132.481 205.335
L134.411 198.315
L136.432 193.05
L138.463 184.275
L140.494 180.765
L142.524 171.99
L144.555 170.235
L146.587 164.97
L148.617 161.46
L150.648 159.705
L152.678 152.685
L154.708 147.42
L156.739 142.155
L158.768 136.89
L160.801 129.87
L162.732 126.36
L164.762 121.095
L166.793 117.585
L168.824 117.585
L170.855 108.81
L172.879 107.055
L174.917 100.035
L176.947 94.77
L178.977 87.75
L181.007 87.75
L183.039 80.73
L185.069 73.71
L187 71.955
L189.041 66.69
L191.072 66.69
L193.103 57.915
L195.134 59.67
L197.164 54.405
L199.195 50.895" style="fill:none;stroke:#694b3a;"/>
   </g>
   <g id="line2d_134">
    <path clip-path="url(#pfb8182a99f)" d="
M93.9874 303.615
L96.018 301.86
L98.0494 294.84
L100.079 289.575
L102.111 279.045
L104.141 275.535
L106.171 268.515
L108.202 263.25
L110.232 256.23
L112.26 249.21
L114.294 243.945
L116.316 235.17
L118.25 233.415
L120.287 222.885
L122.318 219.375
L124.348 215.865
L126.379 212.355
L128.4 208.845
L130.432 201.825
L132.461 198.315
L134.491 189.54
L136.522 184.275
L138.553 175.5
L140.583 175.5
L142.514 166.725
L144.556 166.725
L146.588 161.46
L148.618 159.705
L150.648 154.44
L152.678 150.93
L154.709 142.155
L156.74 140.4
L158.761 129.87
L160.805 122.85
L162.831 122.85
L164.862 117.585
L166.785 110.565
L168.833 100.035
L170.865 94.77
L172.896 82.485
L174.926 77.22
L176.957 71.955
L178.987 68.445
L181.018 63.18
L183.047 57.915
L185.072 52.65" style="fill:none;stroke:#694b3a;"/>
   </g>
   <g id="line2d_135">
    <path clip-path="url(#pfb8182a99f)" d="
M93.9874 307.125
L96.018 300.105
L98.0485 293.085
L100.08 287.82
L102.107 279.045
L104.145 273.78
L106.171 266.76
L108.203 256.23
L110.233 249.21
L112.264 235.17
L114.293 229.905
L116.222 219.375
L118.265 215.865
L120.296 208.845
L122.327 201.825
L124.358 193.05
L126.388 182.52
L128.412 179.01
L130.436 171.99
L132.481 166.725
L134.51 154.44
L136.542 149.175
L138.563 140.4
L140.485 129.87
L142.532 124.605
L144.564 119.34
L146.595 114.075
L148.625 110.565
L150.657 103.545
L152.689 94.77
L154.718 84.24
L156.749 78.975
L158.778 68.445
L160.81 64.935
L162.84 57.915
L164.872 47.385
L166.803 45.63" style="fill:none;stroke:#694b3a;"/>
   </g>
   <g id="line2d_136">
    <path clip-path="url(#pfb8182a99f)" d="
M93.9874 301.86
L96.0196 289.575
L98.0496 284.31
L100.08 273.78
L102.111 268.515
L104.141 263.25
L106.175 252.72
L108.203 245.7
L110.234 236.925
L112.253 233.415
L114.289 228.15
L116.217 221.13
L118.266 212.355
L120.297 201.825
L122.317 194.805
L124.349 184.275
L126.381 177.255
L142.533 121.095
L144.565 112.32
L146.595 105.3
L148.615 96.525
L150.656 91.26
L152.689 84.24
L154.718 78.975
L156.738 68.445
L158.77 61.425
L160.813 49.14" style="fill:none;stroke:#694b3a;"/>
   </g>
   <g id="patch_3">
    <path d="
M73.872 35.1
L787.968 35.1" style="fill:none;stroke:#bcbcbc;"/>
   </g>
   <g id="patch_4">
    <path d="
M787.968 315.9
L787.968 35.1" style="fill:none;stroke:#bcbcbc;"/>
   </g>
   <g id="patch_5">
    <path d="
M73.872 315.9
L787.968 315.9" style="fill:none;stroke:#bcbcbc;"/>
   </g>
   <g id="patch_6">
    <path d="
M73.872 315.9
L73.872 35.1" style="fill:none;stroke:#bcbcbc;"/>
   </g>
   <g id="text_18">
    <!-- Capacitor Voltage over Time -->
    <defs>
     <path d="
M52 50.875
L32.7188 0
L25.7812 0
L6.59375 50.875
L14.8906 50.875
L29.2969 10.4062
L43.7031 50.875
z
" id="AndaleMono-76"/>
    </defs>
    <g transform="translate(314.883 18.868)scale(0.144 -0.144)">
     <use xlink:href="#AndaleMono-43"/>
     <use x="60.009765625" xlink:href="#AndaleMono-61"/>
     <use x="120.01953125" xlink:href="#AndaleMono-70"/>
     <use x="180.029296875" xlink:href="#AndaleMono-61"/>
     <use x="240.0390625" xlink:href="#AndaleMono-63"/>
     <use x="300.048828125" xlink:href="#AndaleMono-69"/>
     <use x="360.05859375" xlink:href="#AndaleMono-74"/>
     <use x="420.068359375" xlink:href="#AndaleMono-6f"/>
     <use x="480.078125" xlink:href="#AndaleMono-72"/>
     <use x="540.087890625" xlink:href="#AndaleMono-20"/>
     <use x="600.09765625" xlink:href="#AndaleMono-56"/>
     <use x="660.107421875" xlink:href="#AndaleMono-6f"/>
     <use x="720.1171875" xlink:href="#AndaleMono-6c"/>
     <use x="780.126953125" xlink:href="#AndaleMono-74"/>
     <use x="840.13671875" xlink:href="#AndaleMono-61"/>
     <use x="900.146484375" xlink:href="#AndaleMono-67"/>
     <use x="960.15625" xlink:href="#AndaleMono-65"/>
     <use x="1020.16601562" xlink:href="#AndaleMono-20"/>
     <use x="1080.17578125" xlink:href="#AndaleMono-6f"/>
     <use x="1140.18554688" xlink:href="#AndaleMono-76"/>
     <use x="1200.1953125" xlink:href="#AndaleMono-65"/>
     <use x="1260.20507812" xlink:href="#AndaleMono-72"/>
     <use x="1320.21484375" xlink:href="#AndaleMono-20"/>
     <use x="1380.22460938" xlink:href="#AndaleMono-54"/>
     <use x="1440.234375" xlink:href="#AndaleMono-69"/>
     <use x="1500.24414062" xlink:href="#AndaleMono-6d"/>
     <use x="1560.25390625" xlink:href="#AndaleMono-65"/>
    </g>
   </g>
  </g>
 </g>
 <defs>
  <clipPath id="pfb8182a99f">
   <rect height="280.8" width="714.096" x="73.872" y="35.1"/>
  </clipPath>
 </defs>
</svg>
